<mxfile host="app.diagrams.net" modified="2024-06-23T12:39:54.061Z" agent="Mozilla/5.0 (Windows NT 10.0; Win64; x64) AppleWebKit/537.36 (KHTML, like Gecko) Chrome/126.0.0.0 Safari/537.36" version="24.4.14" etag="RVjyn7TMIeWmTxjWzU9o" type="github">
  <diagram name="Page-1" id="0e0v8DfbU1kQ-Cx5_EGT">
    <mxGraphModel>
      <root>
        <mxCell id="0" />
        <mxCell id="1" parent="0" />
      </root>
    </mxGraphModel>
  </diagram>
</mxfile>
